<?xml version="1.0" encoding="utf-8"?>
<svg xmlns="http://www.w3.org/2000/svg">
    <defs>
        <symbol id="sunny" width="16" height="16" fill="currentColor" viewBox="0 0 16 16"><path d="M12 8a4 4 0 1 1-8 0 4 4 0 0 1 8 0M8 0a.5.5 0 0 1 .5.5v2a.5.5 0 0 1-1 0v-2A.5.5 0 0 1 8 0m0 13a.5.5 0 0 1 .5.5v2a.5.5 0 0 1-1 0v-2A.5.5 0 0 1 8 13m8-5a.5.5 0 0 1-.5.5h-2a.5.5 0 0 1 0-1h2a.5.5 0 0 1 .5.5M3 8a.5.5 0 0 1-.5.5h-2a.5.5 0 0 1 0-1h2A.5.5 0 0 1 3 8m10.657-5.657a.5.5 0 0 1 0 .707l-1.414 1.415a.5.5 0 1 1-.707-.708l1.414-1.414a.5.5 0 0 1 .707 0m-9.193 9.193a.5.5 0 0 1 0 .707L3.05 13.657a.5.5 0 0 1-.707-.707l1.414-1.414a.5.5 0 0 1 .707 0m9.193 2.121a.5.5 0 0 1-.707 0l-1.414-1.414a.5.5 0 0 1 .707-.707l1.414 1.414a.5.5 0 0 1 0 .707M4.464 4.465a.5.5 0 0 1-.707 0L2.343 3.05a.5.5 0 1 1 .707-.707l1.414 1.414a.5.5 0 0 1 0 .708"/></symbol>
        <symbol id="clear-night" width="16" height="16" fill="currentColor" class="bi bi-moon-stars-fill" viewBox="0 0 16 16"><path d="M6 .278a.77.77 0 0 1 .08.858 7.2 7.2 0 0 0-.878 3.46c0 4.021 3.278 7.277 7.318 7.277q.792-.001 1.533-.16a.79.79 0 0 1 .81.316.73.73 0 0 1-.031.893A8.35 8.35 0 0 1 8.344 16C3.734 16 0 12.286 0 7.71 0 4.266 2.114 1.312 5.124.06A.75.75 0 0 1 6 .278"/><path d="M10.794 3.148a.217.217 0 0 1 .412 0l.387 1.162c.173.518.579.924 1.097 1.097l1.162.387a.217.217 0 0 1 0 .412l-1.162.387a1.73 1.73 0 0 0-1.097 1.097l-.387 1.162a.217.217 0 0 1-.412 0l-.387-1.162A1.73 1.73 0 0 0 9.31 6.593l-1.162-.387a.217.217 0 0 1 0-.412l1.162-.387a1.73 1.73 0 0 0 1.097-1.097zM13.863.099a.145.145 0 0 1 .274 0l.258.774c.115.346.386.617.732.732l.774.258a.145.145 0 0 1 0 .274l-.774.258a1.16 1.16 0 0 0-.732.732l-.258.774a.145.145 0 0 1-.274 0l-.258-.774a1.16 1.16 0 0 0-.732-.732l-.774-.258a.145.145 0 0 1 0-.274l.774-.258c.346-.115.617-.386.732-.732z"/></symbol>
        <symbol id="one-cloud" width="16" height="16" fill="currentColor" class="bi bi-cloudy-fill" viewBox="0 0 16 16"><path d="M13.405 7.027a5.001 5.001 0 0 0-9.499-1.004A3.5 3.5 0 1 0 3.5 13H13a3 3 0 0 0 .405-5.973"/></symbol>
        <symbol id="two-clouds" width="16" height="16" fill="currentColor" class="bi bi-clouds-fill" viewBox="0 0 16 16"><path d="M11.473 9a4.5 4.5 0 0 0-8.72-.99A3 3 0 0 0 3 14h8.5a2.5 2.5 0 1 0-.027-5"/><path d="M14.544 9.772a3.5 3.5 0 0 0-2.225-1.676 5.5 5.5 0 0 0-6.337-4.002 4.002 4.002 0 0 1 7.392.91 2.5 2.5 0 0 1 1.17 4.769z"/></symbol>
        <symbol id="partly-cloudy" width="16" height="16" fill="currentColor" class="bi bi-cloud-sun-fill" viewBox="0 0 16 16"><path d="M11.473 11a4.5 4.5 0 0 0-8.72-.99A3 3 0 0 0 3 16h8.5a2.5 2.5 0 0 0 0-5z"/><path d="M10.5 1.5a.5.5 0 0 0-1 0v1a.5.5 0 0 0 1 0zm3.743 1.964a.5.5 0 1 0-.707-.707l-.708.707a.5.5 0 0 0 .708.708zm-7.779-.707a.5.5 0 0 0-.707.707l.707.708a.5.5 0 1 0 .708-.708zm1.734 3.374a2 2 0 1 1 3.296 2.198q.3.423.516.898a3 3 0 1 0-4.84-3.225q.529.017 1.028.129m4.484 4.074c.6.215 1.125.59 1.522 1.072a.5.5 0 0 0 .039-.742l-.707-.707a.5.5 0 0 0-.854.377M14.5 6.5a.5.5 0 0 0 0 1h1a.5.5 0 0 0 0-1z"/>
        <symbol id="drizzle" width="16" height="16" fill="currentColor" class="bi bi-cloud-drizzle-fill" viewBox="0 0 16 16"><path d="M4.158 12.025a.5.5 0 0 1 .316.633l-.5 1.5a.5.5 0 0 1-.948-.316l.5-1.5a.5.5 0 0 1 .632-.317m6 0a.5.5 0 0 1 .316.633l-.5 1.5a.5.5 0 0 1-.948-.316l.5-1.5a.5.5 0 0 1 .632-.317m-3.5 1.5a.5.5 0 0 1 .316.633l-.5 1.5a.5.5 0 0 1-.948-.316l.5-1.5a.5.5 0 0 1 .632-.317m6 0a.5.5 0 0 1 .316.633l-.5 1.5a.5.5 0 1 1-.948-.316l.5-1.5a.5.5 0 0 1 .632-.317m.747-8.498a5.001 5.001 0 0 0-9.499-1.004A3.5 3.5 0 1 0 3.5 11H13a3 3 0 0 0 .405-5.973"/></symbol>
        <symbol id="rain" width="16" height="16" fill="currentColor" class="bi bi-cloud-rain-fill" viewBox="0 0 16 16"><path d="M4.158 12.025a.5.5 0 0 1 .316.633l-.5 1.5a.5.5 0 1 1-.948-.316l.5-1.5a.5.5 0 0 1 .632-.317m3 0a.5.5 0 0 1 .316.633l-1 3a.5.5 0 1 1-.948-.316l1-3a.5.5 0 0 1 .632-.317m3 0a.5.5 0 0 1 .316.633l-.5 1.5a.5.5 0 1 1-.948-.316l.5-1.5a.5.5 0 0 1 .632-.317m3 0a.5.5 0 0 1 .316.633l-1 3a.5.5 0 1 1-.948-.316l1-3a.5.5 0 0 1 .632-.317m.247-6.998a5.001 5.001 0 0 0-9.499-1.004A3.5 3.5 0 1 0 3.5 11H13a3 3 0 0 0 .405-5.973"/></symbol>
        <symbol id="rain-heavy" width="16" height="16" fill="currentColor" class="bi bi-cloud-rain-heavy-fill" viewBox="0 0 16 16"><path d="M4.176 11.032a.5.5 0 0 1 .292.643l-1.5 4a.5.5 0 0 1-.936-.35l1.5-4a.5.5 0 0 1 .644-.293m3 0a.5.5 0 0 1 .292.643l-1.5 4a.5.5 0 0 1-.936-.35l1.5-4a.5.5 0 0 1 .644-.293m3 0a.5.5 0 0 1 .292.643l-1.5 4a.5.5 0 0 1-.936-.35l1.5-4a.5.5 0 0 1 .644-.293m3 0a.5.5 0 0 1 .292.643l-1.5 4a.5.5 0 0 1-.936-.35l1.5-4a.5.5 0 0 1 .644-.293m.229-7.005a5.001 5.001 0 0 0-9.499-1.004A3.5 3.5 0 1 0 3.5 10H13a3 3 0 0 0 .405-5.973"/></symbol>
        <symbol id="thunderstorm" width="16" height="16" fill="currentColor" class="bi bi-cloud-lightning-rain-fill" viewBox="0 0 16 16"><path d="M2.658 11.026a.5.5 0 0 1 .316.632l-.5 1.5a.5.5 0 1 1-.948-.316l.5-1.5a.5.5 0 0 1 .632-.316m9.5 0a.5.5 0 0 1 .316.632l-.5 1.5a.5.5 0 0 1-.948-.316l.5-1.5a.5.5 0 0 1 .632-.316m-7.5 1.5a.5.5 0 0 1 .316.632l-.5 1.5a.5.5 0 1 1-.948-.316l.5-1.5a.5.5 0 0 1 .632-.316m9.5 0a.5.5 0 0 1 .316.632l-.5 1.5a.5.5 0 0 1-.948-.316l.5-1.5a.5.5 0 0 1 .632-.316m-7.105-1.25A.5.5 0 0 1 7.5 11h1a.5.5 0 0 1 .474.658l-.28.842H9.5a.5.5 0 0 1 .39.812l-2 2.5a.5.5 0 0 1-.875-.433L7.36 14H6.5a.5.5 0 0 1-.447-.724zm6.352-7.249a5.001 5.001 0 0 0-9.499-1.004A3.5 3.5 0 1 0 3.5 10H13a3 3 0 0 0 .405-5.973"/></symbol>
        <symbol id="sunrise" width="16" height="16" fill="currentColor" class="bi bi-sunrise" viewBox="0 0 16 16"><path d="M7.646 1.146a.5.5 0 0 1 .708 0l1.5 1.5a.5.5 0 0 1-.708.708L8.5 2.707V4.5a.5.5 0 0 1-1 0V2.707l-.646.647a.5.5 0 1 1-.708-.708zM2.343 4.343a.5.5 0 0 1 .707 0l1.414 1.414a.5.5 0 0 1-.707.707L2.343 5.05a.5.5 0 0 1 0-.707m11.314 0a.5.5 0 0 1 0 .707l-1.414 1.414a.5.5 0 1 1-.707-.707l1.414-1.414a.5.5 0 0 1 .707 0M8 7a3 3 0 0 1 2.599 4.5H5.4A3 3 0 0 1 8 7m3.71 4.5a4 4 0 1 0-7.418 0H.499a.5.5 0 0 0 0 1h15a.5.5 0 0 0 0-1h-3.79zM0 10a.5.5 0 0 1 .5-.5h2a.5.5 0 0 1 0 1h-2A.5.5 0 0 1 0 10m13 0a.5.5 0 0 1 .5-.5h2a.5.5 0 0 1 0 1h-2a.5.5 0 0 1-.5-.5"/></symbol></symbol>
        <symbol id="sunset" width="16" height="16" fill="currentColor" class="bi bi-sunset" viewBox="0 0 16 16"><path d="M7.646 4.854a.5.5 0 0 0 .708 0l1.5-1.5a.5.5 0 0 0-.708-.708l-.646.647V1.5a.5.5 0 0 0-1 0v1.793l-.646-.647a.5.5 0 1 0-.708.708zm-5.303-.51a.5.5 0 0 1 .707 0l1.414 1.413a.5.5 0 0 1-.707.707L2.343 5.05a.5.5 0 0 1 0-.707zm11.314 0a.5.5 0 0 1 0 .706l-1.414 1.414a.5.5 0 1 1-.707-.707l1.414-1.414a.5.5 0 0 1 .707 0zM8 7a3 3 0 0 1 2.599 4.5H5.4A3 3 0 0 1 8 7m3.71 4.5a4 4 0 1 0-7.418 0H.499a.5.5 0 0 0 0 1h15a.5.5 0 0 0 0-1h-3.79zM0 10a.5.5 0 0 1 .5-.5h2a.5.5 0 0 1 0 1h-2A.5.5 0 0 1 0 10m13 0a.5.5 0 0 1 .5-.5h2a.5.5 0 0 1 0 1h-2a.5.5 0 0 1-.5-.5"/></symbol>
        <symbol id="windy" width="16" height="16" fill="currentColor" class="bi bi-wind" viewBox="0 0 16 16"><path d="M12.5 2A2.5 2.5 0 0 0 10 4.5a.5.5 0 0 1-1 0A3.5 3.5 0 1 1 12.5 8H.5a.5.5 0 0 1 0-1h12a2.5 2.5 0 0 0 0-5m-7 1a1 1 0 0 0-1 1 .5.5 0 0 1-1 0 2 2 0 1 1 2 2h-5a.5.5 0 0 1 0-1h5a1 1 0 0 0 0-2M0 9.5A.5.5 0 0 1 .5 9h10.042a3 3 0 1 1-3 3 .5.5 0 0 1 1 0 2 2 0 1 0 2-2H.5a.5.5 0 0 1-.5-.5"/></symbol>
    </defs>
</svg>